HIERARCHY
ROOT root
{
	OFFSET	0	13.1	24.9
	CHANNELS 6  Xposition Yposition Zposition Xrotation Yrotation Zrotation
	JOINT spine_1
	{
		OFFSET	0	9.99999	0
		CHANNELS 3  Xrotation Yrotation Zrotation
		JOINT spine_2
		{
			OFFSET	0	112	-10
			CHANNELS 3  Xrotation Yrotation Zrotation
			JOINT spine_3
			{
				OFFSET	0	206.5	19.3
				CHANNELS 3  Xrotation Yrotation Zrotation
				JOINT spine_4
				{
					OFFSET	0	110.4	14.6
					CHANNELS 3  Xrotation Yrotation Zrotation
					JOINT neck_1
					{
						OFFSET	0	71.8	-50.3
						CHANNELS 3  Xrotation Yrotation Zrotation
						JOINT neck_2
						{
							OFFSET	0	86.2	-25.8
							CHANNELS 3  Xrotation Yrotation Zrotation
							JOINT head_ee
							{
								OFFSET	0	179.8	-8.7
								CHANNELS 3  Xrotation Yrotation Zrotation
								End Site
								{
									OFFSET	1	0	0
								}
							}
						}
					}
					JOINT left_clavicle
					{
						OFFSET	-43.2	22.4	-70.8
						CHANNELS 3  Xrotation Yrotation Zrotation
						JOINT left_shoulder
						{
							OFFSET	-93.9	-5.79999	48.7
							CHANNELS 3  Xrotation Yrotation Zrotation
							JOINT left_elbow
							{
								OFFSET	-291.4	-30.8	15.2
								CHANNELS 3  Xrotation Yrotation Zrotation
								JOINT left_lowarm_twist
								{
									OFFSET	-110.7	-3.89999	13.6
									CHANNELS 3  Xrotation Yrotation Zrotation
									JOINT left_hand
									{
										OFFSET	-110.7	-3.89999	13.6
										CHANNELS 3  Xrotation Yrotation Zrotation
										JOINT left_ee
										{
											OFFSET	-80.8	-5.10001	12.1
											CHANNELS 3  Xrotation Yrotation Zrotation
											End Site
											{
												OFFSET	1	0	0
											}
										}
									}
								}
							}
						}
					}
					JOINT right_clavicle
					{
						OFFSET	43.2	22.4	-70.8
						CHANNELS 3  Xrotation Yrotation Zrotation
						JOINT right_shoulder
						{
							OFFSET	93.9	-5.79999	48.7
							CHANNELS 3  Xrotation Yrotation Zrotation
							JOINT right_elbow
							{
								OFFSET	291.4	-30.8	15.2
								CHANNELS 3  Xrotation Yrotation Zrotation
								JOINT right_lowarm_twist
								{
									OFFSET	110.7	-3.89999	13.6
									CHANNELS 3  Xrotation Yrotation Zrotation
									JOINT right_hand
									{
										OFFSET	110.7	-3.89999	13.6
										CHANNELS 3  Xrotation Yrotation Zrotation
										JOINT right_ee
										{
											OFFSET	80.8	-5.10001	12.1
											CHANNELS 3  Xrotation Yrotation Zrotation
											End Site
											{
												OFFSET	1	0	0
											}
										}
									}
								}
							}
						}
					}
				}
			}
		}
	}
	JOINT left_hip
	{
		OFFSET	-82.8	-127.5	0.300001
		CHANNELS 3  Xrotation Yrotation Zrotation
		JOINT left_knee
		{
			OFFSET	-28.2	-396.7	2.2
			CHANNELS 3  Xrotation Yrotation Zrotation
			JOINT left_ankle
			{
				OFFSET	-11.7	-411.3	35.4
				CHANNELS 3  Xrotation Yrotation Zrotation
				JOINT left_toes
				{
					OFFSET	0	-60	-88.6
					CHANNELS 3  Xrotation Yrotation Zrotation
					JOINT left_foot_ee
					{
						OFFSET	-22.5	-16.5	-42.2
						CHANNELS 3  Xrotation Yrotation Zrotation
						End Site
						{
							OFFSET	1	0	0
						}
					}
				}
			}
		}
	}
	JOINT right_hip
	{
		OFFSET	82.8	-127.5	0.300001
		CHANNELS 3  Xrotation Yrotation Zrotation
		JOINT right_knee
		{
			OFFSET	28.2	-396.7	2.2
			CHANNELS 3  Xrotation Yrotation Zrotation
			JOINT right_ankle
			{
				OFFSET	11.7	-411.3	35.4
				CHANNELS 3  Xrotation Yrotation Zrotation
				JOINT right_toes
				{
					OFFSET	0	-60	-88.6
					CHANNELS 3  Xrotation Yrotation Zrotation
					JOINT right_foot_ee
					{
						OFFSET	22.5	-16.5	-42.2
						CHANNELS 3  Xrotation Yrotation Zrotation
						End Site
						{
							OFFSET	1	0	0
						}
					}
				}
			}
		}
	}
}
MOTION
Frames: 16
Frame Time: 0.02
3291.67 712.168 -448.171 158.586 -77.0763 158.318 -1.93533 0.0903661 -0.792951 -1.93499 0.140639 -0.785594 -1.93669 0.327417 -0.727833 -1.93737 0.208364 -0.770405 -8.79322 11.501 4.67565 -8.80658 18.3237 7.25202 -0.0 0.0 -0.0 7.50945 24.8005 13.0243 -6.517 9.48805 67.6175 0.26094 -7.3655 0.0167954 -12.2034 -0.586136 1.44307 -1.06733 6.96996 -4.04465 -0.0 0.0 -0.0 10.3165 -2.07645 -20.1845 -8.31802 31.1669 -53.7769 1.36101 33.9862 -0.41594 -31.3093 2.07783 -3.36925 7.48778 -35.1279 -69.6328 0.0 0.0 0.0 -0.0380782 -8.16485 -4.44638 -38.5492 -0.37706 5.79412 20.5356 22.9321 -2.90712 -40.1395 0.0 0.0 -0.0 0.0 -0.0 11.1851 -9.14286 -0.895712 -8.67399 -0.258775 -1.30477 -7.52279 20.3254 -1.27739 22.2986 -0.0 -0.0 0.0 0.0 0.0 
3303.12 715.034 -446.615 161.873 -77.4467 161.437 -1.5634 -0.0495748 -0.800839 -1.56304 0.00148343 -0.802371 -1.56277 0.191423 -0.779205 -1.56361 0.0659641 -0.799656 -8.71139 12.1204 4.84683 -8.72578 19.3565 7.55251 -0.0 0.0 -0.0 6.42396 24.9142 11.5041 -8.22806 12.1975 68.7596 0.19981 -5.65287 0.00986474 -11.3696 -0.5364 1.34869 -1.43065 7.06741 -6.37465 -0.0 0.0 -0.0 10.1247 -4.25417 -19.6398 -5.49617 31.042 -55.5199 1.48747 36.3822 -0.488823 -33.8839 2.32544 -3.5877 7.49132 -35.1333 -69.7013 0.0 0.0 0.0 1.3013 -10.3355 -4.25197 -34.2079 -0.139967 5.17076 23.8086 22.8708 -3.32112 -39.1644 0.0 0.0 -0.0 0.0 -0.0 10.3372 -9.32443 -0.986366 -6.5846 -0.214568 -0.987208 -4.16227 21.8261 -0.71253 25.0417 -0.0 -0.0 0.0 0.0 0.0 
3316.7 711.716 -444.299 166.103 -76.7004 165.575 -1.09938 0.200588 -0.706293 -1.09914 0.245124 -0.692099 -1.10204 0.397084 -0.617587 -1.10245 0.294566 -0.672546 -9.7026 12.4081 4.25457 -9.78318 20.4704 7.214 -0.0 0.0 -0.0 5.35261 25.3128 10.0146 -11.5323 12.6109 70.1693 0.337307 -9.48622 0.0279873 -10.1838 -0.468052 1.21326 -1.7523 10.1462 -7.03058 -0.0 0.0 -0.0 9.39928 -4.59899 -18.1791 -3.06595 30.5432 -57.9586 1.56533 37.788 -0.535781 -32.6828 2.20869 -3.48716 7.46113 -34.0693 -69.838 0.0 0.0 0.0 1.96971 -12.6079 -3.72528 -24.549 0.213973 3.73245 18.4769 24.4907 -2.65921 -40.0101 0.0 0.0 -0.0 0.0 -0.0 8.81875 -9.46921 -0.991908 -2.87023 -0.107491 -0.427327 -5.0715 20.5958 -0.859277 24.6233 -0.0 -0.0 0.0 0.0 0.0 
3324.38 710.829 -443.26 169.907 -78.2912 169.083 -0.684536 -0.144829 -0.587883 -0.68435 -0.107128 -0.595906 -0.683081 0.0277219 -0.604824 -0.683585 -0.068145 -0.601612 -7.40044 13.6706 5.17083 -7.36476 21.7959 8.00201 -0.0 0.0 -0.0 4.94928 24.4995 9.50324 -13.6796 13.9911 70.8121 0.410568 -11.4964 0.0413292 -8.24931 -0.362622 0.989404 -2.46117 12.8304 -10.2659 -0.0 0.0 -0.0 9.19175 -5.68338 -17.7019 -0.594201 29.5027 -60.1979 1.69501 40.0154 -0.617231 -29.8004 1.93739 -3.23616 7.4463 -33.5875 -69.8462 0.0 0.0 0.0 1.95191 -13.8242 -3.85314 -16.0468 0.321764 2.43349 15.2553 27.1918 -2.25759 -36.9942 0.0 0.0 -0.0 0.0 -0.0 8.09746 -9.32478 -0.814091 0.128897 0.0053289 0.0190626 0.0724856 25.9512 0.0128481 27.5271 -0.0 -0.0 0.0 0.0 0.0 
3333.27 710.727 -442.045 174.028 -78.4177 172.855 -0.332727 -0.0653391 -0.56996 -0.332546 -0.0289392 -0.572963 -0.332152 0.095414 -0.565703 -0.332598 0.00487581 -0.573672 -6.96716 14.3452 5.741 -6.89619 22.5602 8.62952 -0.0 0.0 -0.0 4.59823 24.0549 9.03529 -15.8909 15.0287 71.3186 0.513097 -14.2612 0.0641885 -7.30105 -0.313725 0.878422 -3.15949 13.7423 -14.2763 -0.0 0.0 -0.0 9.13257 -5.82547 -17.5779 0.385695 27.3307 -61.1277 1.74082 40.7693 -0.646919 -28.2069 1.79294 -3.09167 7.42957 -33.0161 -69.8502 0.0 0.0 0.0 1.53428 -14.7721 -4.63043 -9.95701 0.28017 1.50048 13.4175 28.2522 -2.01192 -35.8441 0.0 0.0 -0.0 0.0 -0.0 7.16508 -9.40058 -0.844001 3.84692 0.177424 0.563473 1.22219 28.2471 0.222147 29.2855 -0.0 -0.0 0.0 0.0 0.0 
3339.25 714.188 -437.257 179.468 -79.228 178.253 -0.148409 -0.232737 -0.46337 -0.148313 -0.20278 -0.477241 -0.146524 -0.096649 -0.509448 -0.146843 -0.175893 -0.487791 -7.56571 14.5418 6.35799 -7.50549 22.6168 9.38285 -0.0 0.0 -0.0 4.41785 23.8192 8.79174 -16.6106 15.1984 71.0224 0.537735 -14.9162 0.0703944 -6.0773 -0.253354 0.734046 -3.59082 14.967 -16.3773 -0.0 0.0 -0.0 9.16959 -6.62355 -17.5932 1.85382 26.0577 -63.7358 1.82434 42.1009 -0.702192 -26.9511 1.68199 -2.97503 7.40982 -32.3345 -69.8264 0.0 0.0 0.0 2.79504 -15.3794 -5.88631 -6.37469 0.209487 0.955397 13.3103 29.4652 -2.01299 -34.6972 0.0 0.0 -0.0 0.0 -0.0 6.7023 -9.23321 -0.873542 5.295 0.253974 0.772369 3.33605 29.3975 0.611421 30.4162 -0.0 -0.0 0.0 0.0 0.0 
3347.56 713.703 -432.051 -175.505 -79.6763 -176.632 0.0768399 -0.278409 -0.454952 0.0769208 -0.248896 -0.471746 0.0790656 -0.144902 -0.513318 0.0787675 -0.224152 -0.483993 -8.08063 15.2 7.59631 -8.00279 23.0955 10.8274 -0.0 0.0 -0.0 3.87741 23.3838 8.04736 -17.3714 15.5242 71.3671 0.595698 -16.441 0.0860597 -5.32265 -0.217671 0.644392 -3.70707 15.0168 -17.1049 -0.0 0.0 -0.0 9.16585 -7.59625 -17.5129 2.42496 24.6891 -64.6638 1.96378 44.2052 -0.797575 -24.2225 1.44992 -2.71346 7.40121 -31.8825 -69.8851 0.0 0.0 0.0 2.91551 -15.3013 -6.63263 -3.16577 0.117339 0.471614 11.2411 29.4472 -1.71128 -33.9202 0.0 0.0 -0.0 0.0 -0.0 6.7684 -8.93745 -1.18156 6.30869 0.3107 0.917443 2.0473 29.9883 0.379888 30.9481 -0.0 -0.0 0.0 0.0 0.0 
3353.96 709.869 -431.22 -176.216 -80.3136 -177.469 0.0875042 -0.376296 -0.53126 0.0875961 -0.341729 -0.554128 0.0910367 -0.218621 -0.61322 0.0906488 -0.312722 -0.571 -6.94451 16.0218 7.72514 -6.80443 24.2611 10.9207 -0.0 0.0 -0.0 3.09207 23.6511 6.9628 -17.7588 14.7521 72.5822 0.674608 -18.4787 0.109739 -5.22035 -0.212925 0.632203 -3.94716 15.4981 -18.3852 -0.0 0.0 -0.0 9.11786 -7.43886 -17.434 3.31258 22.8784 -65.3195 2.09302 46.03 -0.88916 -20.634 1.16424 -2.35334 7.32487 -30.5126 -68.946 0.0 0.0 0.0 3.02721 -15.3282 -7.42946 -0.640642 0.0258488 0.0949154 -0.250347 29.3302 0.0392413 -33.7488 0.0 0.0 -0.0 0.0 -0.0 6.01129 -10.0042 -1.70902 6.03591 0.295182 0.878502 5.57387 27.0799 0.983662 30.1172 -0.0 -0.0 0.0 0.0 0.0 
3361.82 711.646 -429.891 -173.817 -80.1753 -175.126 0.308415 -0.0386108 -0.498147 0.308553 -0.00683455 -0.499595 0.308665 0.0956829 -0.490394 0.30833 0.0170344 -0.499351 -7.49658 16.0226 8.04915 -7.37359 24.1735 11.3404 -0.0 0.0 -0.0 2.94908 23.1907 6.75555 -17.7995 13.0416 72.3366 0.638799 -17.5597 0.0986621 -4.63464 -0.186173 0.562257 -3.75853 15.9408 -16.8885 -0.0 0.0 -0.0 9.02478 -9.22505 -17.1164 2.13679 21.3814 -65.7266 2.23073 47.8502 -0.989792 -21.6977 1.24655 -2.46192 7.40163 -31.7122 -69.9802 0.0 0.0 0.0 3.06923 -15.2946 -7.40261 -0.498153 0.0201914 0.0737804 -0.74048 29.6935 0.11647 -31.7295 0.0 0.0 -0.0 0.0 -0.0 6.05243 -9.099 -1.65584 5.80417 0.282145 0.845362 4.96661 25.9312 0.866336 29.5701 -0.0 -0.0 0.0 0.0 0.0 
3368.53 714.914 -429.939 -171.231 -79.8911 -172.542 0.439558 0.0332332 -0.552933 0.439726 0.0683499 -0.549698 0.439109 0.178349 -0.524435 0.438737 0.0932869 -0.546019 -8.76416 16.4522 9.71289 -8.63001 24.1536 13.2847 -0.0 0.0 -0.0 2.87249 22.8864 6.64133 -17.8825 13.2318 72.4841 0.713729 -19.4716 0.12246 -3.96876 -0.156631 0.482415 -3.74083 15.9489 -16.7691 -0.0 0.0 -0.0 9.48815 -11.2136 -17.7815 2.43404 20.376 -66.4784 2.1647 46.9929 -0.941168 -19.7851 1.10002 -2.26561 7.24501 -27.9347 -68.1693 0.0 0.0 0.0 2.71727 -15.1348 -7.42431 0.664932 -0.0279515 -0.0982088 -4.21283 29.686 0.666975 -29.407 0.0 0.0 -0.0 0.0 -0.0 5.88955 -9.9271 -1.62849 6.70894 0.333805 0.97445 4.32798 27.4597 0.770848 32.0719 -0.0 -0.0 0.0 0.0 0.0 
3375.03 716.238 -426.935 -170.444 -80.0878 -171.344 0.581559 0.177835 -0.603521 0.581736 0.215878 -0.590983 0.579506 0.329877 -0.535767 0.579186 0.241124 -0.58114 -9.27785 17.2148 9.29532 -9.22081 26.0345 13.1765 -0.0 0.0 -0.0 2.67752 22.5814 6.35936 -17.205 12.165 72.3171 0.718133 -19.5826 0.123933 -3.92352 -0.154657 0.476977 -2.94061 13.0914 -13.2147 -0.0 0.0 -0.0 9.95815 -10.8559 -18.6841 1.94912 18.8898 -65.9868 1.96798 44.2664 -0.80051 -16.7257 0.879535 -1.94184 7.15441 -25.8378 -66.8192 0.0 0.0 0.0 2.27647 -14.8643 -7.78598 0.808168 -0.0341215 -0.119323 -6.42615 30.0409 1.02356 -28.7227 0.0 0.0 -0.0 0.0 -0.0 5.10292 -9.70079 -2.34216 7.03455 0.352896 1.02071 3.04345 27.1985 0.542679 30.5434 -0.0 -0.0 0.0 0.0 0.0 
3382.3 716.352 -425.37 -171.162 -79.9265 -171.774 0.638067 0.244256 -0.632844 0.638245 0.28403 -0.61602 0.635165 0.401135 -0.547034 0.634881 0.309709 -0.603518 -9.5855 18.3768 9.19967 -9.59553 28.3951 13.4544 -0.0 0.0 -0.0 2.56591 22.5808 6.20268 -16.8925 10.5051 71.7176 0.721884 -19.6771 0.125193 -3.51303 -0.136948 0.427577 -2.71683 14.1845 -11.1953 -0.0 0.0 -0.0 10.0781 -11.3305 -18.8496 1.4918 18.0167 -66.183 1.92967 43.7038 -0.773904 -14.4979 0.730063 -1.699 7.20497 -24.6829 -67.8152 0.0 0.0 0.0 2.10885 -14.6867 -8.10955 -0.0954585 0.00391885 0.0141248 -9.07463 30.0576 1.45108 -27.0942 0.0 0.0 -0.0 0.0 -0.0 4.47332 -9.44998 -2.33326 6.90346 0.345178 1.0021 2.91522 28.726 0.530295 28.907 -0.0 -0.0 0.0 0.0 0.0 
3389.39 717.771 -425.902 -171.325 -79.7136 -171.801 0.767322 0.299691 -0.64007 0.767486 0.339812 -0.619704 0.763764 0.455323 -0.540544 0.763541 0.364241 -0.605668 -11.464 19.2263 10.1653 -11.6274 29.9123 15.0916 -0.0 0.0 -0.0 2.51281 23.2487 6.15264 -16.3679 9.69682 71.3776 0.784474 -21.2363 0.14707 -2.82464 -0.108048 0.344456 -2.1776 11.6114 -9.0597 -0.0 0.0 -0.0 9.91834 -9.1793 -18.7925 0.405883 17.114 -66.0291 1.84218 42.3783 -0.714186 -11.2381 0.528683 -1.33374 7.16272 -25.2894 -67.0096 0.0 0.0 0.0 1.84947 -14.6601 -8.18409 0.190213 -0.00787939 -0.0281262 -12.569 30.2253 2.02043 -27.1489 0.0 0.0 -0.0 0.0 -0.0 3.82928 -11.0728 -2.78507 7.16118 0.360392 1.03867 3.25414 28.6131 0.590395 28.2744 -0.0 -0.0 0.0 0.0 0.0 
3398.46 717.145 -426.611 -170.317 -79.6255 -170.283 0.847961 0.293339 -0.740879 0.848202 0.339888 -0.720713 0.843883 0.474421 -0.640217 0.843499 0.36736 -0.707105 -10.9678 20.0188 10.3089 -11.1135 31.1907 15.3204 -0.0 0.0 -0.0 2.28995 23.9327 5.87311 -16.3173 7.69604 71.2001 0.893324 -23.8704 0.18883 -2.75441 -0.105157 0.335958 -1.29347 7.67537 -5.20156 -0.0 0.0 -0.0 9.93231 -10.476 -18.6792 0.0188404 17.3779 -66.2244 1.73686 40.7048 -0.644331 -9.44675 0.426989 -1.12838 7.06363 -23.7038 -65.3326 0.0 0.0 0.0 1.40413 -13.6533 -8.89737 0.0872347 -0.00360197 -0.0129023 -9.05821 29.8938 1.44681 -28.0989 0.0 0.0 -0.0 0.0 -0.0 3.44547 -9.92741 -3.14931 7.28993 0.368053 1.05692 3.38531 29.1843 0.618573 28.2168 -0.0 -0.0 0.0 0.0 0.0 
3406.26 717.679 -428.232 -168.798 -80.5101 -168.232 0.945426 0.302211 -0.900927 0.945806 0.358924 -0.879873 0.940248 0.522931 -0.793445 0.939583 0.391063 -0.866069 -10.8706 21.0819 10.2195 -11.08 33.2575 15.5281 -0.0 0.0 -0.0 2.29337 24.6317 5.90611 -17.4058 3.92685 70.4614 1.0423 -27.3077 0.253201 -2.35953 -0.0890891 0.288105 -0.158481 2.59246 0.0385307 -0.0 0.0 -0.0 9.9335 -7.80155 -18.9584 -1.51193 15.6379 -65.6405 1.58522 38.1387 -0.548011 -4.54222 0.182017 -0.551195 7.2502 -23.4591 -68.6909 0.0 0.0 0.0 1.13759 -13.5075 -9.28873 -0.00119308 4.91279e-05 0.000176498 -9.13613 29.3152 1.45378 -28.2651 0.0 0.0 -0.0 0.0 -0.0 2.95523 -11.2145 -3.43318 7.19614 0.362468 1.04363 3.78516 28.3493 0.68314 26.6907 -0.0 -0.0 0.0 0.0 0.0 
3416.3 716.868 -430.429 -164.814 -80.9721 -163.988 1.27297 0.245891 -0.985681 1.27345 0.308111 -0.968039 1.2682 0.485103 -0.89259 1.26725 0.338053 -0.957994 -10.0557 21.3634 9.00285 -10.2692 34.3596 14.2255 -0.0 0.0 -0.0 1.17654 24.9189 4.43216 -18.0076 1.8514 72.4503 1.24337 -31.6287 0.352187 -1.62638 -0.0601361 0.198975 0.442106 -0.284923 2.83556 -0.0 0.0 -0.0 9.76512 -6.25963 -18.7708 -2.6926 15.3755 -65.3462 1.49947 36.6023 -0.49596 0.165319 -0.00579555 0.0203179 7.16851 -22.9913 -67.129 0.0 0.0 0.0 0.951949 -13.0363 -9.50473 1.2179 -0.0520641 -0.179634 -10.4803 29.4722 1.67224 -29.1822 0.0 0.0 -0.0 0.0 -0.0 2.5592 -12.7589 -3.65943 6.63537 0.329528 0.963983 5.85148 27.788 1.04074 24.5286 -0.0 -0.0 0.0 0.0 0.0 
